<mxfile host="app.diagrams.net" modified="2021-03-31T15:56:22.155Z" agent="5.0 (Windows NT 10.0; Win64; x64) AppleWebKit/537.36 (KHTML, like Gecko) Chrome/89.0.4389.90 Safari/537.36" etag="gz6ph0W8fFXs4Fn_Z-s8" version="14.5.3" type="github">
  <diagram name="Page-1" id="c4acf3e9-155e-7222-9cf6-157b1a14988f">
    <mxGraphModel dx="2414" dy="2600" grid="1" gridSize="10" guides="1" tooltips="1" connect="1" arrows="1" fold="1" page="1" pageScale="1" pageWidth="850" pageHeight="1100" background="#ffffff" math="0" shadow="0">
      <root>
        <mxCell id="0" />
        <mxCell id="809A915IJjPkT9X5xtoz-28" value="Contextos Delimitados" parent="0" />
        <mxCell id="809A915IJjPkT9X5xtoz-36" style="edgeStyle=orthogonalEdgeStyle;curved=1;rounded=0;orthogonalLoop=1;jettySize=auto;html=1;fontSize=23;" edge="1" parent="809A915IJjPkT9X5xtoz-28" source="809A915IJjPkT9X5xtoz-29" target="809A915IJjPkT9X5xtoz-30">
          <mxGeometry relative="1" as="geometry" />
        </mxCell>
        <mxCell id="809A915IJjPkT9X5xtoz-29" value="Extrato de Operações&lt;br&gt;(Financeiro)" style="ellipse;whiteSpace=wrap;html=1;verticalAlign=top;fontSize=23;" vertex="1" parent="809A915IJjPkT9X5xtoz-28">
          <mxGeometry x="-120" y="-190" width="1040" height="750" as="geometry" />
        </mxCell>
        <mxCell id="809A915IJjPkT9X5xtoz-30" value="Imposto de Renda&lt;br&gt;(Fiscal)" style="ellipse;whiteSpace=wrap;html=1;fontSize=23;verticalAlign=top;" vertex="1" parent="809A915IJjPkT9X5xtoz-28">
          <mxGeometry x="-280" y="720" width="1080" height="740" as="geometry" />
        </mxCell>
        <mxCell id="809A915IJjPkT9X5xtoz-35" style="edgeStyle=orthogonalEdgeStyle;curved=1;rounded=0;orthogonalLoop=1;jettySize=auto;html=1;entryX=0;entryY=0;entryDx=0;entryDy=0;fontSize=23;" edge="1" parent="809A915IJjPkT9X5xtoz-28" source="809A915IJjPkT9X5xtoz-32" target="809A915IJjPkT9X5xtoz-29">
          <mxGeometry relative="1" as="geometry" />
        </mxCell>
        <mxCell id="809A915IJjPkT9X5xtoz-32" value="Home Broker&lt;br&gt;(Externo)" style="ellipse;whiteSpace=wrap;html=1;fontSize=23;verticalAlign=top;" vertex="1" parent="809A915IJjPkT9X5xtoz-28">
          <mxGeometry x="-380" y="-690" width="530" height="400" as="geometry" />
        </mxCell>
        <mxCell id="809A915IJjPkT9X5xtoz-34" style="edgeStyle=orthogonalEdgeStyle;rounded=0;orthogonalLoop=1;jettySize=auto;html=1;entryX=1;entryY=0;entryDx=0;entryDy=0;fontSize=23;curved=1;" edge="1" parent="809A915IJjPkT9X5xtoz-28" source="809A915IJjPkT9X5xtoz-33" target="809A915IJjPkT9X5xtoz-29">
          <mxGeometry relative="1" as="geometry" />
        </mxCell>
        <mxCell id="809A915IJjPkT9X5xtoz-33" value="Cadastro de Cliente&lt;br&gt;(Externo)" style="ellipse;whiteSpace=wrap;html=1;fontSize=23;verticalAlign=top;" vertex="1" parent="809A915IJjPkT9X5xtoz-28">
          <mxGeometry x="680" y="-730" width="530" height="400" as="geometry" />
        </mxCell>
        <mxCell id="1" value="Modelo de Domínio" style="locked=1;" parent="0" />
        <mxCell id="809A915IJjPkT9X5xtoz-1" value="Nota de Corretagem" style="swimlane;fontStyle=0;childLayout=stackLayout;horizontal=1;startSize=26;fillColor=none;horizontalStack=0;resizeParent=1;resizeParentMax=0;resizeLast=0;collapsible=1;marginBottom=0;" vertex="1" parent="1">
          <mxGeometry x="320" y="160" width="140" height="104" as="geometry" />
        </mxCell>
        <mxCell id="809A915IJjPkT9X5xtoz-2" value="+ field: type" style="text;strokeColor=none;fillColor=none;align=left;verticalAlign=top;spacingLeft=4;spacingRight=4;overflow=hidden;rotatable=0;points=[[0,0.5],[1,0.5]];portConstraint=eastwest;" vertex="1" parent="809A915IJjPkT9X5xtoz-1">
          <mxGeometry y="26" width="140" height="26" as="geometry" />
        </mxCell>
        <mxCell id="809A915IJjPkT9X5xtoz-3" value="+ field: type" style="text;strokeColor=none;fillColor=none;align=left;verticalAlign=top;spacingLeft=4;spacingRight=4;overflow=hidden;rotatable=0;points=[[0,0.5],[1,0.5]];portConstraint=eastwest;" vertex="1" parent="809A915IJjPkT9X5xtoz-1">
          <mxGeometry y="52" width="140" height="26" as="geometry" />
        </mxCell>
        <mxCell id="809A915IJjPkT9X5xtoz-4" value="+ field: type" style="text;strokeColor=none;fillColor=none;align=left;verticalAlign=top;spacingLeft=4;spacingRight=4;overflow=hidden;rotatable=0;points=[[0,0.5],[1,0.5]];portConstraint=eastwest;" vertex="1" parent="809A915IJjPkT9X5xtoz-1">
          <mxGeometry y="78" width="140" height="26" as="geometry" />
        </mxCell>
        <mxCell id="809A915IJjPkT9X5xtoz-5" value="Negócio Realizado" style="swimlane;fontStyle=0;childLayout=stackLayout;horizontal=1;startSize=26;fillColor=none;horizontalStack=0;resizeParent=1;resizeParentMax=0;resizeLast=0;collapsible=1;marginBottom=0;" vertex="1" parent="1">
          <mxGeometry x="320" y="400" width="140" height="104" as="geometry" />
        </mxCell>
        <mxCell id="809A915IJjPkT9X5xtoz-6" value="+ field: type" style="text;strokeColor=none;fillColor=none;align=left;verticalAlign=top;spacingLeft=4;spacingRight=4;overflow=hidden;rotatable=0;points=[[0,0.5],[1,0.5]];portConstraint=eastwest;" vertex="1" parent="809A915IJjPkT9X5xtoz-5">
          <mxGeometry y="26" width="140" height="26" as="geometry" />
        </mxCell>
        <mxCell id="809A915IJjPkT9X5xtoz-7" value="+ field: type" style="text;strokeColor=none;fillColor=none;align=left;verticalAlign=top;spacingLeft=4;spacingRight=4;overflow=hidden;rotatable=0;points=[[0,0.5],[1,0.5]];portConstraint=eastwest;" vertex="1" parent="809A915IJjPkT9X5xtoz-5">
          <mxGeometry y="52" width="140" height="26" as="geometry" />
        </mxCell>
        <mxCell id="809A915IJjPkT9X5xtoz-8" value="+ field: type" style="text;strokeColor=none;fillColor=none;align=left;verticalAlign=top;spacingLeft=4;spacingRight=4;overflow=hidden;rotatable=0;points=[[0,0.5],[1,0.5]];portConstraint=eastwest;" vertex="1" parent="809A915IJjPkT9X5xtoz-5">
          <mxGeometry y="78" width="140" height="26" as="geometry" />
        </mxCell>
        <mxCell id="809A915IJjPkT9X5xtoz-9" value="" style="endArrow=diamondThin;endFill=1;endSize=24;html=1;" edge="1" parent="1" source="809A915IJjPkT9X5xtoz-5" target="809A915IJjPkT9X5xtoz-4">
          <mxGeometry width="160" relative="1" as="geometry">
            <mxPoint x="150" y="370" as="sourcePoint" />
            <mxPoint x="310" y="370" as="targetPoint" />
          </mxGeometry>
        </mxCell>
        <mxCell id="809A915IJjPkT9X5xtoz-10" value="Cliente" style="swimlane;fontStyle=0;childLayout=stackLayout;horizontal=1;startSize=26;fillColor=none;horizontalStack=0;resizeParent=1;resizeParentMax=0;resizeLast=0;collapsible=1;marginBottom=0;" vertex="1" parent="1">
          <mxGeometry x="670" y="160" width="140" height="104" as="geometry" />
        </mxCell>
        <mxCell id="809A915IJjPkT9X5xtoz-11" value="+ field: type" style="text;strokeColor=none;fillColor=none;align=left;verticalAlign=top;spacingLeft=4;spacingRight=4;overflow=hidden;rotatable=0;points=[[0,0.5],[1,0.5]];portConstraint=eastwest;" vertex="1" parent="809A915IJjPkT9X5xtoz-10">
          <mxGeometry y="26" width="140" height="26" as="geometry" />
        </mxCell>
        <mxCell id="809A915IJjPkT9X5xtoz-12" value="+ field: type" style="text;strokeColor=none;fillColor=none;align=left;verticalAlign=top;spacingLeft=4;spacingRight=4;overflow=hidden;rotatable=0;points=[[0,0.5],[1,0.5]];portConstraint=eastwest;" vertex="1" parent="809A915IJjPkT9X5xtoz-10">
          <mxGeometry y="52" width="140" height="26" as="geometry" />
        </mxCell>
        <mxCell id="809A915IJjPkT9X5xtoz-13" value="+ field: type" style="text;strokeColor=none;fillColor=none;align=left;verticalAlign=top;spacingLeft=4;spacingRight=4;overflow=hidden;rotatable=0;points=[[0,0.5],[1,0.5]];portConstraint=eastwest;" vertex="1" parent="809A915IJjPkT9X5xtoz-10">
          <mxGeometry y="78" width="140" height="26" as="geometry" />
        </mxCell>
        <mxCell id="809A915IJjPkT9X5xtoz-14" value="" style="endArrow=none;html=1;edgeStyle=orthogonalEdgeStyle;" edge="1" parent="1" source="809A915IJjPkT9X5xtoz-10" target="809A915IJjPkT9X5xtoz-1">
          <mxGeometry relative="1" as="geometry">
            <mxPoint x="350" y="580" as="sourcePoint" />
            <mxPoint x="510" y="580" as="targetPoint" />
          </mxGeometry>
        </mxCell>
        <mxCell id="809A915IJjPkT9X5xtoz-15" value="1" style="edgeLabel;resizable=0;html=1;align=left;verticalAlign=bottom;" connectable="0" vertex="1" parent="809A915IJjPkT9X5xtoz-14">
          <mxGeometry x="-1" relative="1" as="geometry">
            <mxPoint x="-10" as="offset" />
          </mxGeometry>
        </mxCell>
        <mxCell id="809A915IJjPkT9X5xtoz-16" value="N" style="edgeLabel;resizable=0;html=1;align=right;verticalAlign=bottom;" connectable="0" vertex="1" parent="809A915IJjPkT9X5xtoz-14">
          <mxGeometry x="1" relative="1" as="geometry">
            <mxPoint x="10" as="offset" />
          </mxGeometry>
        </mxCell>
        <mxCell id="809A915IJjPkT9X5xtoz-17" value="Resumo de Negócios" style="swimlane;fontStyle=0;childLayout=stackLayout;horizontal=1;startSize=26;fillColor=none;horizontalStack=0;resizeParent=1;resizeParentMax=0;resizeLast=0;collapsible=1;marginBottom=0;" vertex="1" parent="1">
          <mxGeometry x="60" y="160" width="140" height="104" as="geometry" />
        </mxCell>
        <mxCell id="809A915IJjPkT9X5xtoz-18" value="+ field: type" style="text;strokeColor=none;fillColor=none;align=left;verticalAlign=top;spacingLeft=4;spacingRight=4;overflow=hidden;rotatable=0;points=[[0,0.5],[1,0.5]];portConstraint=eastwest;" vertex="1" parent="809A915IJjPkT9X5xtoz-17">
          <mxGeometry y="26" width="140" height="26" as="geometry" />
        </mxCell>
        <mxCell id="809A915IJjPkT9X5xtoz-19" value="+ field: type" style="text;strokeColor=none;fillColor=none;align=left;verticalAlign=top;spacingLeft=4;spacingRight=4;overflow=hidden;rotatable=0;points=[[0,0.5],[1,0.5]];portConstraint=eastwest;" vertex="1" parent="809A915IJjPkT9X5xtoz-17">
          <mxGeometry y="52" width="140" height="26" as="geometry" />
        </mxCell>
        <mxCell id="809A915IJjPkT9X5xtoz-20" value="+ field: type" style="text;strokeColor=none;fillColor=none;align=left;verticalAlign=top;spacingLeft=4;spacingRight=4;overflow=hidden;rotatable=0;points=[[0,0.5],[1,0.5]];portConstraint=eastwest;" vertex="1" parent="809A915IJjPkT9X5xtoz-17">
          <mxGeometry y="78" width="140" height="26" as="geometry" />
        </mxCell>
        <mxCell id="809A915IJjPkT9X5xtoz-21" value="Resumo Financeiro" style="swimlane;fontStyle=0;childLayout=stackLayout;horizontal=1;startSize=26;fillColor=none;horizontalStack=0;resizeParent=1;resizeParentMax=0;resizeLast=0;collapsible=1;marginBottom=0;" vertex="1" parent="1">
          <mxGeometry x="320" y="-50" width="140" height="104" as="geometry" />
        </mxCell>
        <mxCell id="809A915IJjPkT9X5xtoz-22" value="+ field: type" style="text;strokeColor=none;fillColor=none;align=left;verticalAlign=top;spacingLeft=4;spacingRight=4;overflow=hidden;rotatable=0;points=[[0,0.5],[1,0.5]];portConstraint=eastwest;" vertex="1" parent="809A915IJjPkT9X5xtoz-21">
          <mxGeometry y="26" width="140" height="26" as="geometry" />
        </mxCell>
        <mxCell id="809A915IJjPkT9X5xtoz-23" value="+ field: type" style="text;strokeColor=none;fillColor=none;align=left;verticalAlign=top;spacingLeft=4;spacingRight=4;overflow=hidden;rotatable=0;points=[[0,0.5],[1,0.5]];portConstraint=eastwest;" vertex="1" parent="809A915IJjPkT9X5xtoz-21">
          <mxGeometry y="52" width="140" height="26" as="geometry" />
        </mxCell>
        <mxCell id="809A915IJjPkT9X5xtoz-24" value="+ field: type" style="text;strokeColor=none;fillColor=none;align=left;verticalAlign=top;spacingLeft=4;spacingRight=4;overflow=hidden;rotatable=0;points=[[0,0.5],[1,0.5]];portConstraint=eastwest;" vertex="1" parent="809A915IJjPkT9X5xtoz-21">
          <mxGeometry y="78" width="140" height="26" as="geometry" />
        </mxCell>
        <mxCell id="809A915IJjPkT9X5xtoz-25" value="" style="endArrow=diamondThin;endFill=1;endSize=24;html=1;" edge="1" parent="1" source="809A915IJjPkT9X5xtoz-17" target="809A915IJjPkT9X5xtoz-1">
          <mxGeometry width="160" relative="1" as="geometry">
            <mxPoint x="400" y="410" as="sourcePoint" />
            <mxPoint x="400" y="274" as="targetPoint" />
          </mxGeometry>
        </mxCell>
        <mxCell id="809A915IJjPkT9X5xtoz-26" value="" style="endArrow=diamondThin;endFill=1;endSize=24;html=1;" edge="1" parent="1" source="809A915IJjPkT9X5xtoz-21" target="809A915IJjPkT9X5xtoz-1">
          <mxGeometry width="160" relative="1" as="geometry">
            <mxPoint x="210" y="222" as="sourcePoint" />
            <mxPoint x="330" y="222" as="targetPoint" />
          </mxGeometry>
        </mxCell>
      </root>
    </mxGraphModel>
  </diagram>
</mxfile>
